# xmcd
#
# Track frame offsets: 
#        150
#        21872
#        47740
#        75307
#        98612
#        113200
#        131847
#        155752
#        183467
#        202045
#        216107
#        241902
#        308897
#
# Disc length: 4398 seconds
#
# Revision: 4
# Processed by: cddbd v1.5.2PL0 Copyright (c) Steve Scherf et al.
# Submitted via: ExactAudioCopyFreeDBPlugin 1.0
#
DISCID=ae112c0d
DTITLE=Axel Zwingenberger - Boogie Woogie Jubilee feat. Big Joe Turner
DYEAR=1981
DGENRE=Blues - Boogie Woogie
TTITLE0=Hide And Seek Boogie
TTITLE1=Back Door Getaway
TTITLE2=Chains Of Love
TTITLE3=Flip, Flop And Fly
TTITLE4=California Crawl
TTITLE5=Cherry Red
TTITLE6=St. Louis Blues
TTITLE7=Boogie Woogie 'Round The Clock
TTITLE8=Piney Brown Blues
TTITLE9=Backyard Boogie
TTITLE10=Back Door Getaway (2nd Version)
TTITLE11=Boogie Woogie Jubilee
TTITLE12=Cimarron St. Breakdown
EXTD=Recorded live at Joe Turner's home, Los Angeles, Calif., 1981
EXTT0=
EXTT1=
EXTT2=
EXTT3=
EXTT4=
EXTT5=
EXTT6=
EXTT7=
EXTT8=
EXTT9=
EXTT10=
EXTT11=
EXTT12=
PLAYORDER=
